<mxfile host="app.diagrams.net" modified="2022-07-11T15:26:49.056Z" agent="5.0 (X11; Linux x86_64) AppleWebKit/537.36 (KHTML, like Gecko) Chrome/103.0.5060.53 Safari/537.36" etag="pf0TLrbKmlk0S_BW8bpz" version="20.0.4" type="github">
  <diagram id="1cwf9QMhMBIWAV_nlfg7" name="Page-1">
    <mxGraphModel dx="1905" dy="1044" grid="1" gridSize="10" guides="1" tooltips="1" connect="1" arrows="1" fold="1" page="1" pageScale="1" pageWidth="850" pageHeight="1100" math="0" shadow="0">
      <root>
        <mxCell id="0" />
        <mxCell id="1" parent="0" />
        <mxCell id="-1LIzW8WOh7mBxe9a7c6-1" value="" style="rounded=1;whiteSpace=wrap;html=1;fontSize=20;fillColor=#f5f5f5;fontColor=#333333;strokeColor=#666666;" vertex="1" parent="1">
          <mxGeometry x="95" y="190" width="210" height="320" as="geometry" />
        </mxCell>
        <mxCell id="-1LIzW8WOh7mBxe9a7c6-2" style="edgeStyle=orthogonalEdgeStyle;rounded=0;orthogonalLoop=1;jettySize=auto;html=1;fontSize=20;" edge="1" parent="1" source="-1LIzW8WOh7mBxe9a7c6-4" target="-1LIzW8WOh7mBxe9a7c6-6">
          <mxGeometry relative="1" as="geometry" />
        </mxCell>
        <mxCell id="-1LIzW8WOh7mBxe9a7c6-4" value="&lt;font style=&quot;font-size: 20px;&quot;&gt;conv2D_3x3&lt;/font&gt;" style="rounded=1;whiteSpace=wrap;html=1;fillColor=#fff2cc;strokeColor=#d6b656;" vertex="1" parent="1">
          <mxGeometry x="140" y="230" width="120" height="60" as="geometry" />
        </mxCell>
        <mxCell id="-1LIzW8WOh7mBxe9a7c6-15" style="edgeStyle=orthogonalEdgeStyle;rounded=0;orthogonalLoop=1;jettySize=auto;html=1;entryX=0.5;entryY=0;entryDx=0;entryDy=0;" edge="1" parent="1" source="-1LIzW8WOh7mBxe9a7c6-6" target="-1LIzW8WOh7mBxe9a7c6-13">
          <mxGeometry relative="1" as="geometry" />
        </mxCell>
        <mxCell id="-1LIzW8WOh7mBxe9a7c6-6" value="&lt;font style=&quot;font-size: 20px;&quot;&gt;conv2D_3x3&lt;/font&gt;" style="rounded=1;whiteSpace=wrap;html=1;fillColor=#fff2cc;strokeColor=#d6b656;" vertex="1" parent="1">
          <mxGeometry x="140" y="320" width="120" height="60" as="geometry" />
        </mxCell>
        <mxCell id="-1LIzW8WOh7mBxe9a7c6-12" value="" style="endArrow=classic;html=1;rounded=0;fontSize=28;entryX=0.5;entryY=0;entryDx=0;entryDy=0;" edge="1" parent="1" target="-1LIzW8WOh7mBxe9a7c6-4">
          <mxGeometry width="50" height="50" relative="1" as="geometry">
            <mxPoint x="199.99999999999977" y="200" as="sourcePoint" />
            <mxPoint x="190" y="230" as="targetPoint" />
          </mxGeometry>
        </mxCell>
        <mxCell id="-1LIzW8WOh7mBxe9a7c6-18" style="edgeStyle=orthogonalEdgeStyle;rounded=0;orthogonalLoop=1;jettySize=auto;html=1;" edge="1" parent="1" source="-1LIzW8WOh7mBxe9a7c6-13">
          <mxGeometry relative="1" as="geometry">
            <mxPoint x="200" y="500" as="targetPoint" />
          </mxGeometry>
        </mxCell>
        <mxCell id="-1LIzW8WOh7mBxe9a7c6-13" value="&lt;font style=&quot;font-size: 20px;&quot;&gt;conv2D_3x3&lt;/font&gt;" style="rounded=1;whiteSpace=wrap;html=1;fillColor=#fff2cc;strokeColor=#d6b656;" vertex="1" parent="1">
          <mxGeometry x="140" y="410" width="120" height="60" as="geometry" />
        </mxCell>
      </root>
    </mxGraphModel>
  </diagram>
</mxfile>
